<svg xmlns="http://www.w3.org/2000/svg" xmlns:xlink="http://www.w3.org/1999/xlink" viewBox="0 0 221.39 354"><defs><style>.cls-1,.cls-3{fill:none;}.cls-2,.cls-5{fill:#927444;}.cls-3,.cls-5{stroke:#543c18;stroke-miterlimit:10;}.cls-4{clip-path:url(#clip-path);}.cls-6{fill:#a07e4d;}.cls-7{fill:#fff;}</style><clipPath id="clip-path" transform="translate(-162.12 -208.68)"><path class="cls-1" d="M176.43,278.38l10.4,115.69a39.57,39.57,0,0,0,15.87,28.51c8.6,6.27,21.57,11.89,40.54,12.06,31.62.28,61.6,0,75.52-.21a38.07,38.07,0,0,0,21.13-6.63c7.65-5.29,16.09-14.22,17.5-28.37,2.6-26,14.21-97.55,9.29-135.09A3.91,3.91,0,0,0,363,261l-.59,0a3.93,3.93,0,0,1-3.62-3.31l-1.48-9.55a3.89,3.89,0,0,0-.71-1.72L345,230.52a3.91,3.91,0,0,0-3.7-1.56l-11.81,1.65a3.84,3.84,0,0,1-3.1-.91c-1.34-1.19-3.95-2.52-7.77-.26a4,4,0,0,1-4.72-.62L295.38,211s-6.37-6.06-12.8,1.2-10.13,16.91-26.53,15.33c-13-1.26-20.23,22.33-22.64,32.07a3.92,3.92,0,0,1-4.74,2.85c-4.07-1-10.34-1.26-13.58,4.45-4,7-11.49,7-14.56,6.73a3.76,3.76,0,0,1-2.11-.91c-2.22-1.89-8.9-6.45-15.85.36a3.78,3.78,0,0,1-2.39,1.08h-.08A3.93,3.93,0,0,0,176.43,278.38Z"/></clipPath></defs><title>Groot</title><g id="body"><path class="cls-2" d="M378.55,451.24c1.55,0,9,.51.38,6.2a48,48,0,0,1-6.32,3.64l-6.31,1.61s1.67.58,6.31-1.61l3-.76a1.56,1.56,0,0,1,.71,0c1.67.3,8,1.78.71,5.83-8.3,4.57-14.79,9.14-39.06,7.32a1.69,1.69,0,0,0-1,.25l-15.83,9.83a.75.75,0,0,1-.2.1c-.69.32-4.38,1.81-7.38-.8l.08-.19,0,0c1.62-3.79,9.83-20.16,10.83-24.86a1.6,1.6,0,0,0,1.18.34l4.51-.37a1.71,1.71,0,0,0,1.57-1.76c-.08-3,.06-9.36,2.65-10.66,3.29-1.64,12.92-9.1,13.65-9.67l.11-.07c.77-.5,10-6.33,5.12,4.24,0,.05-.05.11-.08.15l-.7,1.23a1.7,1.7,0,0,0,1.56,2.55l2.57-.11a1.68,1.68,0,0,0,1.06-.44l8.07-7.26.09-.07c.72-.56,9.63-7.35,5.76,4.3a1.82,1.82,0,0,1-.29.55l-8.16,6.53c-1,1.29,8.34-3.4,9.93-3.82l.42-.1s10.63-2.52,4.48,5.18a1.9,1.9,0,0,1-.45.4l-1.52.87c-1.91,1.1-5.06,2.85-8,4.21l-7,1.9c1,.57,3.93-.45,7-1.9l10.12-2.71A1.32,1.32,0,0,1,378.55,451.24Z" transform="translate(-162.12 -208.68)"/><path class="cls-2" d="M366.3,462.69l6.31-1.61C368,463.27,366.3,462.69,366.3,462.69Z" transform="translate(-162.12 -208.68)"/><path class="cls-2" d="M360.91,455.91l7-1.9C364.84,455.46,361.94,456.48,360.91,455.91Z" transform="translate(-162.12 -208.68)"/><path class="cls-2" d="M317,458.27l7.54-.79a2.1,2.1,0,0,1-.06.31l0,0-10.84,24.86-14.52-11c-1-.83-2.86-7-3.86-5.72-3.45,4.43,4.7,23.87,4.85,24.55l0,.1,7.08,24.91c0,.11.11,5,.12,5.16l1.58,16.59a1.72,1.72,0,0,0,.57,1.14c1.48,1.34,6.14,5.58,12.91,12.11,7.51,7.25,1.52,10.65.14,11a12.45,12.45,0,0,1-1.21.42H275.65c-1.39,0-.86-17.9-.81-18.15,0,0,3.41-18.07,3.1-18.46l-7-10.77a1.7,1.7,0,0,0-2.51-.19l-8.07,11c-.27.25-1.71,19.32-1.43,19.7,0,0-.37,16.52-1.28,16.56-8.08.34-38.37,1.45-45.69-.57-7.86-2.17,1.9-9.54,2.71-10,5.62-3.08,16.78-13.59,16.78-13.59.45-.32-3.28-15.95-2.57-17.46,1.74-3.71,3.3-8.16,3.35-8.35,3.8-11.45,11.26-21.4,14.09-24.82a1.68,1.68,0,0,0,.39-.93c.55-7.18-4.91-15.6-7-18.58a1.7,1.7,0,0,0-2.13-.55,25.85,25.85,0,0,0-5.45,3.6c-3,2.61-6.68,1.12-7.38.8l-.19-.1-15.83-9.83a1.78,1.78,0,0,0-1-.25c-24.27,1.81-30.77-2.76-39.06-7.32-7.33-4-1-5.53.7-5.83a1.75,1.75,0,0,1,.72,0l3,.76a51.42,51.42,0,0,1-6.32-3.63c-8.6-5.71-1.16-6.18.38-6.21a1.35,1.35,0,0,1,.49.06l10.14,2.73c-3-1.38-6.14-3.13-8.06-4.22l-1.51-.88a1.75,1.75,0,0,1-.46-.4c-6.14-7.7,4.48-5.18,4.48-5.18l.42.11c1.59.42,11,5.1,9.93,3.81l-8.15-6.54a1.32,1.32,0,0,1-.29-.53c-3.87-11.66,5-4.87,5.76-4.32l.09.08,8.06,7.26a1.73,1.73,0,0,0,1.07.44l2.56.12a1.71,1.71,0,0,0,1.57-2.56l-.7-1.23-.08-.15c-4.85-10.57,4.35-4.74,5.12-4.23,0,0,.06,0,.1.06.73.57,10.36,8,13.66,9.67,2.59,1.3,2.73,7.64,2.65,10.67a1.7,1.7,0,0,0,1.56,1.75l4.52.38a1.74,1.74,0,0,0,1.2-.37c3.41-2.75,4-1.4,4,0a1.72,1.72,0,0,0,1.63,1.68l3.54.16a1.72,1.72,0,0,0,1.1-.33c1.65-1.23,6.89-5.23,8.75-6.66a1.7,1.7,0,0,0,.68-1.26c0-.65.12-1.61.19-2.42a1.7,1.7,0,0,1,1.73-1.55s59.69-.13,59.74.76l.11,3.75c0,.18-.05.13-.07.12s0,0,.07.09l11,17.7a1.73,1.73,0,0,0,1.18.71Z" transform="translate(-162.12 -208.68)"/><path class="cls-2" d="M324.43,457.77l0,0c-1,4.7-9.21,21.07-10.83,24.86l0,0Z" transform="translate(-162.12 -208.68)"/><path class="cls-3" d="M368,454c3-1.36,6.12-3.11,8-4.21l1.52-.87a1.9,1.9,0,0,0,.45-.4c6.15-7.7-4.48-5.18-4.48-5.18l-.42.1c-1.59.42-10.95,5.11-9.93,3.82l8.16-6.53a1.82,1.82,0,0,0,.29-.55c3.87-11.65-5-4.86-5.76-4.3l-.09.07-8.07,7.26a1.68,1.68,0,0,1-1.06.44l-2.57.11a1.7,1.7,0,0,1-1.56-2.55l.7-1.23s0-.1.08-.15c4.84-10.57-4.35-4.74-5.12-4.24l-.11.07c-.73.57-10.36,8-13.65,9.67-2.59,1.3-2.73,7.63-2.65,10.66a1.71,1.71,0,0,1-1.57,1.76l-4.51.37a1.6,1.6,0,0,1-1.18-.34" transform="translate(-162.12 -208.68)"/><path class="cls-3" d="M368,454l-7,1.9C361.94,456.48,364.84,455.46,368,454Z" transform="translate(-162.12 -208.68)"/><path class="cls-3" d="M372.61,461.08a48,48,0,0,0,6.32-3.64c8.6-5.69,1.17-6.17-.38-6.2a1.32,1.32,0,0,0-.48.06L368,454" transform="translate(-162.12 -208.68)"/><path class="cls-3" d="M372.61,461.08l-6.31,1.61S368,463.27,372.61,461.08Z" transform="translate(-162.12 -208.68)"/><path class="cls-3" d="M313.59,482.63l-.08.19c3,2.61,6.69,1.12,7.38.8a.75.75,0,0,0,.2-.1l15.83-9.83a1.69,1.69,0,0,1,1-.25c24.27,1.82,30.76-2.75,39.06-7.32,7.33-4.05,1-5.53-.71-5.83a1.56,1.56,0,0,0-.71,0l-3,.76" transform="translate(-162.12 -208.68)"/><path class="cls-3" d="M324.45,457.79a2.1,2.1,0,0,0,.06-.31l-7.54.79-2.1-.27a1.73,1.73,0,0,1-1.18-.71l-11-17.7c0-.06-.06-.09-.07-.09s.09.06.07-.12l-.11-3.75c-.05-.89-59.74-.76-59.74-.76a1.7,1.7,0,0,0-1.73,1.55c-.07.81-.15,1.77-.19,2.42a1.7,1.7,0,0,1-.68,1.26c-1.86,1.43-7.1,5.43-8.75,6.66a1.72,1.72,0,0,1-1.1.33l-3.54-.16a1.72,1.72,0,0,1-1.63-1.68c0-1.38-.59-2.73-4,0a1.74,1.74,0,0,1-1.2.37l-4.52-.38a1.7,1.7,0,0,1-1.56-1.75c.08-3-.06-9.37-2.65-10.67-3.3-1.64-12.93-9.1-13.66-9.67,0,0-.06-.05-.1-.06-.77-.51-10-6.34-5.12,4.23l.08.15.7,1.23a1.71,1.71,0,0,1-1.57,2.56l-2.56-.12a1.73,1.73,0,0,1-1.07-.44l-8.06-7.26-.09-.08c-.72-.55-9.63-7.34-5.76,4.32a1.32,1.32,0,0,0,.29.53l8.15,6.54c1,1.29-8.34-3.39-9.93-3.81l-.42-.11s-10.62-2.52-4.48,5.18a1.75,1.75,0,0,0,.46.4l1.51.88c1.92,1.09,5.09,2.84,8.06,4.22l-10.14-2.73a1.35,1.35,0,0,0-.49-.06c-1.54,0-9,.5-.38,6.21a51.42,51.42,0,0,0,6.32,3.63l-3-.76a1.75,1.75,0,0,0-.72,0c-1.66.3-8,1.79-.7,5.83,8.29,4.56,14.79,9.13,39.06,7.32a1.78,1.78,0,0,1,1,.25L224.54,471l.19.1c.7.32,4.39,1.81,7.38-.8a25.85,25.85,0,0,1,5.45-3.6,1.7,1.7,0,0,1,2.13.55c2.13,3,7.59,11.4,7,18.58a1.68,1.68,0,0,1-.39.93c-2.83,3.42-10.29,13.37-14.09,24.82-.05.19-1.61,4.64-3.35,8.35-.71,1.51,3,17.14,2.57,17.46,0,0-11.16,10.51-16.78,13.59-.81.46-10.57,7.83-2.71,10,7.32,2,37.61.91,45.69.57.91,0,1.28-16.56,1.28-16.56-.28-.38,1.16-19.45,1.43-19.7l8.07-11a1.7,1.7,0,0,1,2.51.19l7,10.77c.31.39-3.1,18.46-3.1,18.46,0,.25-.58,18.15.81,18.15h45.62a12.45,12.45,0,0,0,1.21-.42c1.38-.37,7.37-3.77-.14-11-6.77-6.53-11.43-10.77-12.91-12.11a1.72,1.72,0,0,1-.57-1.14l-1.58-16.59c0-.11-.09-5-.12-5.16l-7.08-24.91,0-.1c-.15-.68-8.3-20.12-4.85-24.55,1-1.29,2.82,4.89,3.86,5.72l14.52,11" transform="translate(-162.12 -208.68)"/></g><g id="head"><g class="cls-4"><path class="cls-5" d="M176.24,279l10.39,115.69a39.58,39.58,0,0,0,15.88,28.51c8.59,6.27,21.57,11.89,40.54,12.06,31.61.28,61.59,0,75.51-.21a38,38,0,0,0,21.14-6.64c7.64-5.28,16.08-14.21,17.5-28.36,2.6-26,14.2-97.55,9.28-135.09a3.89,3.89,0,0,0-3.63-3.37l-.59,0a3.92,3.92,0,0,1-3.62-3.31l-1.48-9.55a4,4,0,0,0-.71-1.72l-11.61-15.83a3.94,3.94,0,0,0-3.71-1.56l-11.8,1.65a3.9,3.9,0,0,1-3.11-.91c-1.34-1.19-4-2.52-7.76-.27a4,4,0,0,1-4.73-.61l-18.54-17.87s-6.37-6-12.8,1.21-10.14,16.91-26.54,15.33c-13-1.26-20.23,22.33-22.63,32.07a3.93,3.93,0,0,1-4.75,2.85c-4.06-.95-10.33-1.27-13.57,4.45-4,7-11.5,7-14.57,6.73a3.86,3.86,0,0,1-2.11-.91c-2.21-1.89-8.9-6.45-15.85.36a3.75,3.75,0,0,1-2.38,1.08h-.08A3.91,3.91,0,0,0,176.24,279Z" transform="translate(-162.12 -208.68)"/><rect class="cls-6" x="141.81" y="315.79" width="144.55" height="3.85" rx="1.93" transform="translate(-250.01 344.81) rotate(-94.01)"/><rect class="cls-6" x="130.68" y="295.66" width="144.55" height="3.85" rx="1.93" transform="translate(-241.84 312.16) rotate(-94.01)"/><rect class="cls-6" x="121.83" y="323.05" width="144.55" height="3.85" rx="1.93" transform="translate(-278.64 332.64) rotate(-94.01)"/></g><g id="eyes"><ellipse cx="225.98" cy="370.48" rx="21.52" ry="20.56" transform="translate(-185.82 -193.14) rotate(-3.74)"/><ellipse cx="316.63" cy="373.19" rx="21.52" ry="20.56" transform="translate(-185.8 -187.21) rotate(-3.74)"/><path class="cls-7" d="M235.69,366.36c-6.65-3.66-13.42-5.1-20.07-.91-2.44,1.53-4.77.33-5.14-1.83h0c-.37-2.17.34-3.36,3.21-5.09,7.81-4.74,16.7-3.8,24.63.57,2.9,1.6,3.07,3.13,2.38,5.17h0C240,366.32,238.12,367.7,235.69,366.36Z" transform="translate(-162.12 -208.68)"/><path class="cls-7" d="M327.09,368.27c-6.65-3.66-13.42-5.1-20.07-.91-2.44,1.53-4.77.33-5.14-1.84h0c-.36-2.16.34-3.35,3.21-5.08,7.81-4.74,16.71-3.8,24.63.57,2.91,1.6,3.07,3.13,2.38,5.17h0C331.41,368.23,329.53,369.61,327.09,368.27Z" transform="translate(-162.12 -208.68)"/><path class="cls-6" d="M342.78,262c-5.53-8.78-12.54-15.89-22.81-18.41-3.77-.93-5.75-3.94-4.88-6h0c.88-2.05,2.42-2.38,6.81-1.24,12,3.11,21.74,11.7,28.33,22.16,2.41,3.84,1.68,5.2-.35,6.23h0C347.84,265.73,344.81,265.17,342.78,262Z" transform="translate(-162.12 -208.68)"/><rect class="cls-6" x="349.85" y="267.64" width="9.21" height="7.15" rx="3.58" transform="translate(228.76 -382.29) rotate(57.26)"/></g><g id="mouth"><path d="M247.33,406.42s24.11,24.18,44.48,1Z" transform="translate(-162.12 -208.68)"/></g><g id="paupières"><path class="cls-5" d="M205.73,380.82s18.52,27.11,41.84-.16Z" transform="translate(-162.12 -208.68)"/><path class="cls-5" d="M295.86,380.72s17.36,29.12,40.12,3.16Z" transform="translate(-162.12 -208.68)"/></g></g></svg>