<svg xmlns="http://www.w3.org/2000/svg" viewBox="0 0 219.76 346.82"><defs><style>.cls-1{fill:#ffeb6d;}.cls-2,.cls-5{fill:#fff;}.cls-2{stroke:#d8d7d6;}.cls-11,.cls-2,.cls-3,.cls-7,.cls-8{stroke-miterlimit:10;}.cls-3{fill:#927444;stroke:#725a38;}.cls-4{opacity:0.5;}.cls-6{fill:#c9c4c2;}.cls-7{fill:#afa9a8;fill-rule:evenodd;}.cls-7,.cls-8{stroke:#7f7978;}.cls-11,.cls-8{fill:none;}.cls-9{fill:#cec7c6;}.cls-10{fill:#693024;}.cls-11{stroke:#000;}</style></defs><title>minion</title><g id="body"><path class="cls-1" d="M188.44,257c10.36-10.22,82.2-92.17,161.4-.58.12.15.25.3.36.46,1.68,2.46,15.09,23.37,11.79,61-3.25,37,1.9,74.64,2.71,80.23a4.91,4.91,0,0,0,.37,1.31c2.18,5.06,17.14,41.93,11,86.45a5.34,5.34,0,0,1-5.06,4.64l-7.31.28a5.3,5.3,0,0,1-5.45-6.11c1.88-11.83,4.62-37.87-3.28-58.4,0,0,16.19,51.39-.7,68.28-14.48,14.48-30,17.58-34.13,18.18a5.05,5.05,0,0,0-2.81,1.35c-1.91,1.8-5,6.1-7.32,16.07a5.3,5.3,0,0,1-4.92,4.06c-6.46.3-19,.57-25.94-1.38a5.32,5.32,0,0,1-3.87-4.88l-.23-5.11a5.3,5.3,0,0,0-7.08-4.76h0a5.33,5.33,0,0,0-3.49,4.38l-.7,6a5.34,5.34,0,0,1-3,4.17,37.87,37.87,0,0,1-26,2.27,5.32,5.32,0,0,1-3.75-3.76c-1.42-5.33-4.88-16.35-9.14-16.88-5.6-.7-54.35-11.84-42.45-54.17a5.08,5.08,0,0,0,.2-1.45c-.06-4.15-.13-25.19,4.94-30.26,0,0-10.72,31-4.22,56.74a5.31,5.31,0,0,1-5.13,6.62h-5.72a5.3,5.3,0,0,1-5.27-4.7c-1.52-13.31-4.28-52.52,10.66-85.66a5.27,5.27,0,0,0,.46-2.41c-.7-13.48-5-129.2,13.05-142C189.18,256.52,188,257.51,188.44,257Z" transform="translate(-159.58 -209.8)"/><g id="shoes"><path d="M259.74,533.31l1.06,14.52a4.52,4.52,0,0,1-4.22,1.84l-1.85,2.91s-9,7.13-27.45,2.37c0,0-1.06-8.18,1.05-11.88a40.74,40.74,0,0,1,6.34-7.65Z" transform="translate(-159.58 -209.8)"/><path d="M280.6,533.57,279,548.35s1.06,1.59,3.7.8l2.9,5s16.9,5.55,26.93,0c0,0,.79-6.86-.79-9.24s-6.34-10.29-6.34-10.29Z" transform="translate(-159.58 -209.8)"/></g><g id="overalls"><path class="cls-2" d="M179,459s-9.86,16.55,3.87,32.38,20.41,17.6,38.89,23.94c0,0,4.75.53,9,19,0,0,29,0,32.2-2.11S265.55,518,265.55,518l9-.53,1.58,13.73s13.73,5.8,33.26,1.58c0,0,2.64-14.25,9-20.06,0,0,29-5.28,39.06-22.18a39.41,39.41,0,0,0,3.7-32.73l-25.34,6.86L337.35,405s-98.2,11.08-134.1-.53l.53,60.71Z" transform="translate(-159.58 -209.8)"/><path id="central_pocket" class="cls-3" d="M243.38,431.94s29,5.81,51.21,0c0,0,3.69,31.68-6.86,38s-35.38,1.59-35.38,1.59S239.68,466.26,243.38,431.94Z" transform="translate(-159.58 -209.8)"/><path class="cls-2" d="M176.86,379.15s-4.23,3.69-3.7,15.84c0,0,27.45,30.09,37.49,34.31l6.86-14.25S177.38,385,176.86,379.15Z" transform="translate(-159.58 -209.8)"/><path class="cls-2" d="M363.22,379.68s4.75,13.19,2.64,17.95c0,0-35.37,33.26-39.07,32.2S321.51,414,321.51,414,359,388.12,363.22,379.68Z" transform="translate(-159.58 -209.8)"/><path id="left_pocket" class="cls-3" d="M203.78,467.84l-18.48-5.28s-3.69,20.59-1.05,25.87S205.37,487.38,203.78,467.84Z" transform="translate(-159.58 -209.8)"/><path id="right_pocket" class="cls-3" d="M335.24,466.79s.53,28.51,19,21.11a40.06,40.06,0,0,0,.26-26.13Z" transform="translate(-159.58 -209.8)"/><g class="cls-4"><path class="cls-5" d="M324.76,250.65c-9.1-10.47-19.3-18.43-33.31-21-5.26-1-7.16-4.4-6.73-7.45h0c.42-3,2-4.46,7.94-3.21,15.71,3.32,30.41,12.74,40.94,24.74,3.95,4.51,3.62,6.81,1.26,8.76h0C332.5,254.44,328.18,254.58,324.76,250.65Z" transform="translate(-159.58 -209.8)"/></g><ellipse id="right_button" cx="47.63" cy="207.09" rx="6.07" ry="5.54"/><ellipse id="left_button" cx="171.92" cy="207.18" rx="6.07" ry="5.54"/></g><g id="gloves"><path d="M164.45,486.85s-4.22.26-4.49,3.43,5,9.24,2.38,15.57-4.23,17.69-.79,20.33,5.54,3.7,11.88,1.32c0,0,3.69,8.45,5.8,7.66,0,0,9.51,5,14-5l.27-6.07s17.68-3.43,2.9-17.42L184,500.84l.53-6.86-3.17-3.44-16.63-.26Z" transform="translate(-159.58 -209.8)"/><path d="M357.41,490.54l-3.16,3.17,1.32,7.92-9.77,6.07s-19.8,14,0,17.16c0,0,3.7,25.08,20.85,3.7,0,0,14.79,3.16,12.41-14l-3.43-12.41,3.69-11.35s.53-3.17-4.48-2.91v2.64Z" transform="translate(-159.58 -209.8)"/></g></g><g id="glasses"><g id="Calque_10" data-name="Calque 10"><polygon points="27.31 80.65 27.04 91.74 14.11 92.79 12.79 83.29 27.31 80.65"/><polygon points="27 104.01 26.73 92.92 13.8 91.87 14.11 101.24 27 104.01"/><polygon points="192.55 79.86 192.82 91.47 206.28 92.79 207.6 83.03 192.55 79.86"/><polygon points="192.55 92.79 192.03 103.09 206.28 102.03 206.54 93.85 192.55 92.79"/><polygon class="cls-6" points="31.79 75.11 28.36 75.37 27.57 108.1 31.27 108.37 31.79 75.11"/><polygon class="cls-6" points="192.55 75.9 187.27 75.63 189.03 107.84 193.43 108.1 192.55 75.9"/></g><path class="cls-7" d="M262,302.77a31.86,31.86,0,1,1-31.87-32A32,32,0,0,1,262,302.77Zm76.94-.14a31.86,31.86,0,1,1-31.85-32A31.94,31.94,0,0,1,339,302.63Zm-70.2,22.46A44.16,44.16,0,1,0,268.9,281a44.18,44.18,0,1,0-.12,44.07Z" transform="translate(-159.58 -209.8)"/><path class="cls-8" d="M307.13,270.62a32,32,0,1,1-31.86,32A31.94,31.94,0,0,1,307.13,270.62Z" transform="translate(-159.58 -209.8)"/><path class="cls-8" d="M230.17,270.74a32,32,0,1,1-31.84,32A31.94,31.94,0,0,1,230.17,270.74Z" transform="translate(-159.58 -209.8)"/><path class="cls-9" d="M333,282.61c-3-7.86-12.43-12.48-20.63-12.38-3.08,0-6.85-.16-7.76-4h0c-.91-3.79,1.55-3.66,5.86-4,11.48-.87,27.11,7.87,31.35,18.55,1.6,4,3,6.2-.78,7.41.21.75.2.7,0,0C337.25,289.47,334.09,285.56,333,282.61Z" transform="translate(-159.58 -209.8)"/></g><g id="eyes"><g id="Calque_12" data-name="Calque 12"><ellipse class="cls-5" cx="72.18" cy="92.26" rx="34.14" ry="27.1"/><ellipse class="cls-5" cx="146.18" cy="92.88" rx="34.14" ry="27.1"/></g><ellipse class="cls-10" cx="79.92" cy="94.9" rx="10.56" ry="9.68"/><ellipse class="cls-10" cx="139.1" cy="94.82" rx="10.56" ry="9.68"/><circle cx="80.28" cy="95.78" r="4.58"/><circle cx="139.63" cy="95.56" r="4.58"/><ellipse class="cls-5" cx="77.9" cy="92.35" rx="2.38" ry="2.2"/><ellipse class="cls-5" cx="136.46" cy="92.53" rx="2.38" ry="2.2"/></g><g id="mouth"><path class="cls-11" d="M236,374.92s39.42,14.08,68.28-1.4" transform="translate(-159.58 -209.8)"/></g><g id="hair"><path class="cls-11" d="M275.58,219.18s20.06-9.77,41.18,12.41" transform="translate(-159.58 -209.8)"/><path class="cls-11" d="M264.23,220s-24-10-42.23,12.41" transform="translate(-159.58 -209.8)"/><path class="cls-11" d="M262.38,217.33s-34.31-10-56.75,21.38" transform="translate(-159.58 -209.8)"/><path class="cls-11" d="M263.44,216.28S221.2,196.48,197.71,244" transform="translate(-159.58 -209.8)"/><path class="cls-11" d="M263.7,217.6s-40.38-28.25-71,27.71" transform="translate(-159.58 -209.8)"/><path class="cls-11" d="M275.32,217.6s32.73-13.2,57.55,20.85" transform="translate(-159.58 -209.8)"/><path class="cls-11" d="M276.64,215.48s43-15.57,65.73,29" transform="translate(-159.58 -209.8)"/><path class="cls-11" d="M273.74,217.07s42-26.93,72.06,26.66" transform="translate(-159.58 -209.8)"/></g></svg>