<svg xmlns="http://www.w3.org/2000/svg" viewBox="0 0 428.29 363.23"><defs><style>.cls-1{fill:#0a3307;}.cls-1,.cls-11,.cls-6{stroke:#000;}.cls-1,.cls-11,.cls-5,.cls-6,.cls-7,.cls-8,.cls-9{stroke-miterlimit:10;}.cls-11,.cls-2{fill:#051903;}.cls-3{fill:#134c0f;}.cls-4{fill:#fff;}.cls-5,.cls-6{fill:none;}.cls-5{stroke:#071106;}.cls-7{fill:#927444;stroke:#6b5434;}.cls-8{fill:#4f3d24;stroke:#332718;}.cls-10,.cls-9{fill:#352c04;}.cls-9{stroke:#231d03;}</style></defs><title>Yoda</title><g id="head"><path id="head-2" data-name="head" class="cls-1" d="M339.25,346.65s12.28-8.78,21.93-7.9c0,0,11-6.59,18.23-5.92s44.06,1.79,60.79-17.33,30-33.9,47.95-38.23c0,0,4.33-6.28-8.22-6.73s-114.56,2.69-119-2.54-90.37-68.41-171.7.83L66.86,271.51s-11.43,4-.67,7.4,41,24.2,41,33.61,39.65,22.85,60.49,19.49c0,0,40.33,7.39,41,16.13S297.74,380.1,339.25,346.65Z" transform="translate(-61.07 -236.13)"/><g id="ears"><path class="cls-2" d="M190.53,294.37s-19.49,9.41-4,27.56c0,0-58.48,2-67.89-18.82s-8.73-23.53-8.73-23.53Z" transform="translate(-61.07 -236.13)"/><path class="cls-2" d="M366.18,295.17s19.49,9.41,4,27.56c0,0,58.48,2,67.89-18.82s8.74-23.53,8.74-23.53Z" transform="translate(-61.07 -236.13)"/></g><g id="Calque_12" data-name="Calque 12"><path class="cls-3" d="M316.57,255c-15.19-7.71-17.06-6.76-31.52-6.69-4.32,0-5.75-2.33-5.66-4.09h0c.08-1.76-.12-3.08,4.66-2.9,16.05.62,21.32.41,37.19,8.5,4.73,2.41,4.05,3.56,2.63,5.1h0C322.45,256.42,321.1,257.26,316.57,255Z" transform="translate(-61.07 -236.13)"/><ellipse class="cls-3" cx="273.3" cy="23.06" rx="5.6" ry="4.03"/></g><g id="eyes"><path d="M294.72,297.73s33.6,16.13,41.67-6.72S288,274.2,294.72,297.73Z" transform="translate(-61.07 -236.13)"/><path d="M214,291.79c-8.06-22.85,48.4-16.8,41.68,6.72,0,0-33.61,16.13-41.68-6.72" transform="translate(-61.07 -236.13)"/><path class="cls-4" d="M331.24,285.21c-4.64-3.54-5.35-3-10.28-2.73a1.49,1.49,0,0,1-1.64-1.92h0c.15-.88.17-1.53,1.79-1.52,5.42,0,7.23-.2,12.07,3.52,1.45,1.11,1.14,1.69.55,2.48h0C333.14,285.83,332.62,286.27,331.24,285.21Z" transform="translate(-61.07 -236.13)"/><path class="cls-4" d="M248.34,289.13c-4.2-4.05-5-3.63-9.88-3.9a1.5,1.5,0,0,1-1.42-2.1h0c.25-.85.35-1.5,2-1.31,5.38.64,7.2.65,11.58,4.9,1.31,1.27.94,1.8.26,2.52h0C250.16,290,249.6,290.34,248.34,289.13Z" transform="translate(-61.07 -236.13)"/><path class="cls-5" d="M257.67,275.62s-22.7-23.3-46.9,3" transform="translate(-61.07 -236.13)"/><path class="cls-5" d="M292.92,275s23-22.7,47.8,5.08" transform="translate(-61.07 -236.13)"/><path class="cls-5" d="M309.65,308.78s19.72,10.76,31.67-15.23" transform="translate(-61.07 -236.13)"/><path class="cls-5" d="M246.62,308.78s-29.57,8.07-36.15-10.75" transform="translate(-61.07 -236.13)"/></g><g id="mouth"><path class="cls-6" d="M254.39,323.94s18.82,19.49,42.34.67" transform="translate(-61.07 -236.13)"/></g><g id="nose"><path class="cls-5" d="M263.8,283.71s4.48,10.3.89,26.43c0,0,6.05-3.8,7.85,1.12s5.6-.22,5.6-.22,1.57-5.6,6.27.45c0,0,1.79,1.79,1.57-3.14s-5.15-4.93,2.46-25.76" transform="translate(-61.07 -236.13)"/></g></g><g id="clothes"><path class="cls-7" d="M284.63,358.89s-12.77,59.15-3.36,66.55,18.82,173.41,18.82,173.41-164-4-162-7.39c1.87-3.12,17.65-68.45,19.52-72.16s13-34.73,20.28-38.15c11.43-5.38,14.64-32.86,10.61-45S163,405.27,163,405.27s-.68-16.8,16.8-11.42c0,0,4.65-6.5-2.91-7s-7.4-44.81,11.65-42.79,46.15,12.32,52.65,11.2S290.68,354,284.63,358.89Z" transform="translate(-61.07 -236.13)"/><g id="Calque_11" data-name="Calque 11"><path class="cls-7" d="M275.6,363.6l85.57-24.85,12.6,57.11s-22.29,72.45-6.16,84.1,60.64,113.51,60.64,113.51S313.94,601.09,293.82,598,275.6,363.6,275.6,363.6Z" transform="translate(-61.07 -236.13)"/></g><g id="sleeves"><path class="cls-8" d="M167.61,409.31s-16,.74-31.22,35.1c0,0,13.74,32.26,41.22,30.77,0,0,12.7-15.84,15.09-31.82S167.61,409.31,167.61,409.31Z" transform="translate(-61.07 -236.13)"/><path class="cls-8" d="M373.25,394.91c2.33-1.54,25.52,13.18,40.75,47.54,0,0-13.74,32.26-41.22,30.77,0,0-12.7-15.84-15.09-31.82S368.86,395.27,373.25,394.91Z" transform="translate(-61.07 -236.13)"/><path class="cls-9" d="M372.78,473.22s25.48-31.54,41.22-30.77l-5.47-10.29S377.47,442.91,367,463.82Z" transform="translate(-61.07 -236.13)"/><path class="cls-9" d="M136.39,444.41l5.08-10.16s27.78,11.35,41.82,31.67l-5.08,8.36S141.47,442.61,136.39,444.41Z" transform="translate(-61.07 -236.13)"/></g><g id="Calque_7" data-name="Calque 7"><path class="cls-8" d="M282.12,363.06s82.34-31.68,82.11-22.4c0,0,15,8.37,13.16,45.48,0,0-24.95,35.29-96.63,31.9l-12.48-.9,6.8-53.86Z" transform="translate(-61.07 -236.13)"/><path class="cls-8" d="M284.41,357.1s-10.75,63.63-4,68.78c0,0-49.29,4.19-98-28.08a21.62,21.62,0,0,1-9.85-13.14c-2.1-9,.29-39.43,13.14-39.43s17.92,1.79,58.55,10.45C244.23,355.68,280.08,353.14,284.41,357.1Z" transform="translate(-61.07 -236.13)"/><g id="Calque_13" data-name="Calque 13"><ellipse class="cls-10" cx="360.19" cy="378.78" rx="2.88" ry="4.15" transform="translate(-218.28 68.38) rotate(-38.27)"/><ellipse class="cls-10" cx="359.89" cy="390.57" rx="2.88" ry="3.89" transform="translate(-225.65 70.73) rotate(-38.27)"/><ellipse class="cls-10" cx="368.07" cy="375.53" rx="2.88" ry="4.15" transform="translate(-214.57 72.57) rotate(-38.27)"/><ellipse class="cls-10" cx="367.77" cy="387.32" rx="2.88" ry="3.89" transform="translate(-221.94 74.92) rotate(-38.27)"/><ellipse class="cls-10" cx="272.04" cy="407.83" rx="2.88" ry="4.15" transform="translate(-255.22 20.03) rotate(-38.27)"/><ellipse class="cls-10" cx="288.76" cy="402.42" rx="2.88" ry="4.15" transform="translate(-248.27 29.22) rotate(-38.27)"/><ellipse class="cls-10" cx="288.46" cy="414.21" rx="2.88" ry="3.89" transform="translate(-255.64 31.57) rotate(-38.27)"/><ellipse class="cls-10" cx="296.64" cy="399.17" rx="2.88" ry="4.15" transform="translate(-244.57 33.41) rotate(-38.27)"/><ellipse class="cls-10" cx="296.34" cy="410.96" rx="2.88" ry="3.89" transform="translate(-251.93 35.75) rotate(-38.27)"/><ellipse class="cls-10" cx="323.21" cy="410.92" rx="2.66" ry="3.37" transform="translate(-246.13 52.39) rotate(-38.27)"/><ellipse class="cls-10" cx="307.08" cy="396.34" rx="2.88" ry="4.15" transform="translate(-240.57 39.26) rotate(-38.27)"/><ellipse class="cls-10" cx="306.78" cy="408.13" rx="2.88" ry="3.89" transform="translate(-247.94 41.61) rotate(-38.27)"/><ellipse class="cls-10" cx="334.25" cy="408.59" rx="2.66" ry="3.37" transform="translate(-242.32 58.72) rotate(-38.27)"/><ellipse class="cls-10" cx="314.96" cy="393.09" rx="2.88" ry="4.15" transform="translate(-236.86 43.45) rotate(-38.27)"/><ellipse class="cls-10" cx="314.66" cy="404.88" rx="2.88" ry="3.89" transform="translate(-244.23 45.79) rotate(-38.27)"/><ellipse class="cls-10" cx="342.54" cy="405.09" rx="2.66" ry="3.37" transform="translate(-223.83 7.37) rotate(-32.05)"/><ellipse class="cls-10" cx="357.55" cy="398.03" rx="2.66" ry="3.37" transform="translate(-230.77 70.89) rotate(-38.27)"/><ellipse class="cls-10" cx="349.71" cy="401.84" rx="2.66" ry="3.37" transform="translate(-234.82 66.85) rotate(-38.27)"/><ellipse class="cls-10" cx="296.01" cy="389.97" rx="2.66" ry="3.37" transform="translate(-239.01 31.03) rotate(-38.27)"/><ellipse class="cls-10" cx="303.89" cy="386.72" rx="2.66" ry="3.37" transform="translate(-235.3 35.22) rotate(-38.27)"/><ellipse class="cls-10" cx="290.88" cy="366.29" rx="2.88" ry="4.15" transform="translate(-225.44 22.77) rotate(-38.27)"/><ellipse class="cls-10" cx="290.58" cy="378.08" rx="2.88" ry="3.89" transform="translate(-232.81 25.12) rotate(-38.27)"/><ellipse class="cls-10" cx="314.33" cy="383.9" rx="2.66" ry="3.37" transform="matrix(0.79, -0.62, 0.62, 0.79, -231.31, 41.08)"/><ellipse class="cls-10" cx="301.31" cy="363.47" rx="2.88" ry="4.15" transform="translate(-221.45 28.63) rotate(-38.27)"/><ellipse class="cls-10" cx="301.01" cy="375.26" rx="2.88" ry="3.89" transform="translate(-228.82 30.97) rotate(-38.27)"/><ellipse class="cls-10" cx="322.21" cy="380.64" rx="2.66" ry="3.37" transform="translate(-227.6 45.26) rotate(-38.27)"/><ellipse class="cls-10" cx="309.2" cy="360.22" rx="2.88" ry="4.15" transform="translate(-217.74 32.81) rotate(-38.27)"/><ellipse class="cls-10" cx="308.9" cy="372.01" rx="2.88" ry="3.89" transform="translate(-225.11 35.16) rotate(-38.27)"/><ellipse class="cls-10" cx="325.15" cy="390.27" rx="2.88" ry="4.15" transform="translate(-232.92 49.15) rotate(-38.27)"/><ellipse class="cls-10" cx="324.85" cy="402.06" rx="2.88" ry="3.89" transform="translate(-240.29 51.5) rotate(-38.27)"/><ellipse class="cls-10" cx="333.04" cy="387.01" rx="2.88" ry="4.15" transform="translate(-229.21 53.34) rotate(-38.27)"/><ellipse class="cls-10" cx="332.74" cy="398.8" rx="2.88" ry="3.89" transform="translate(-236.58 55.69) rotate(-38.27)"/><ellipse class="cls-10" cx="341.87" cy="384.86" rx="2.88" ry="4.15" transform="translate(-225.98 58.34) rotate(-38.27)"/><ellipse class="cls-10" cx="341.57" cy="396.65" rx="2.88" ry="3.89" transform="translate(-233.35 60.69) rotate(-38.27)"/><ellipse class="cls-10" cx="349.75" cy="381.61" rx="2.88" ry="4.15" transform="translate(-222.27 62.53) rotate(-38.27)"/><ellipse class="cls-10" cx="349.45" cy="393.4" rx="2.88" ry="3.89" transform="translate(-229.64 64.88) rotate(-38.27)"/><ellipse class="cls-10" cx="265.98" cy="386.74" rx="2.88" ry="3.89" transform="translate(-243.46 11.74) rotate(-38.27)"/><ellipse class="cls-10" cx="287.18" cy="392.13" rx="2.66" ry="3.37" transform="matrix(0.79, -0.62, 0.62, 0.79, -242.24, 26.03)"/><ellipse class="cls-10" cx="330.79" cy="378.79" rx="2.66" ry="3.37" transform="translate(-224.6 50.18) rotate(-38.27)"/><ellipse class="cls-10" cx="317.78" cy="358.36" rx="2.88" ry="4.15" transform="translate(-214.74 37.73) rotate(-38.27)"/><ellipse class="cls-10" cx="317.48" cy="370.15" rx="2.88" ry="3.89" transform="matrix(0.79, -0.62, 0.62, 0.79, -222.11, 40.07)"/><ellipse class="cls-10" cx="338.68" cy="375.54" rx="2.66" ry="3.37" transform="translate(-220.89 54.36) rotate(-38.27)"/><ellipse class="cls-10" cx="325.67" cy="355.11" rx="2.88" ry="4.15" transform="translate(-211.04 41.91) rotate(-38.27)"/><ellipse class="cls-10" cx="325.36" cy="366.9" rx="2.88" ry="3.89" transform="translate(-218.4 44.26) rotate(-38.27)"/><ellipse class="cls-10" cx="347.51" cy="373.38" rx="2.66" ry="3.37" transform="translate(-217.66 59.37) rotate(-38.27)"/><ellipse class="cls-10" cx="334.49" cy="352.95" rx="2.88" ry="4.15" transform="translate(-207.8 46.92) rotate(-38.27)"/><ellipse class="cls-10" cx="334.19" cy="364.74" rx="2.88" ry="3.89" transform="translate(-215.17 49.26) rotate(-38.27)"/><ellipse class="cls-10" cx="355.39" cy="370.13" rx="2.66" ry="3.37" transform="translate(-213.95 63.55) rotate(-38.27)"/><ellipse class="cls-10" cx="342.38" cy="349.7" rx="2.88" ry="4.15" transform="translate(-204.09 51.1) rotate(-38.27)"/><ellipse class="cls-10" cx="342.08" cy="361.49" rx="2.88" ry="3.89" transform="translate(-211.46 53.45) rotate(-38.27)"/><ellipse class="cls-10" cx="365.83" cy="367.3" rx="2.66" ry="3.37" transform="translate(-209.96 69.41) rotate(-38.27)"/><ellipse class="cls-10" cx="352.81" cy="346.87" rx="2.88" ry="4.15" transform="translate(-200.1 56.96) rotate(-38.27)"/><ellipse class="cls-10" cx="352.51" cy="358.66" rx="2.88" ry="3.89" transform="translate(-207.47 59.31) rotate(-38.27)"/><ellipse class="cls-10" cx="373.71" cy="364.05" rx="2.66" ry="3.37" transform="translate(-206.25 73.59) rotate(-38.27)"/><ellipse class="cls-10" cx="360.7" cy="343.62" rx="2.88" ry="4.15" transform="translate(-196.39 61.14) rotate(-38.27)"/><ellipse class="cls-10" cx="360.4" cy="355.41" rx="2.88" ry="3.89" transform="translate(-203.76 63.49) rotate(-38.27)"/><ellipse class="cls-10" cx="275.11" cy="386.24" rx="2.66" ry="3.37" transform="translate(-139.69 -165.72) rotate(-12.78)"/><ellipse class="cls-10" cx="274.4" cy="364.44" rx="2.88" ry="4.15" transform="translate(-134.88 -166.42) rotate(-12.78)"/><ellipse class="cls-10" cx="269.06" cy="374.95" rx="2.88" ry="3.89" transform="translate(-137.34 -167.34) rotate(-12.78)"/><ellipse class="cls-10" cx="277.57" cy="375.41" rx="2.88" ry="3.89" transform="translate(-137.23 -165.44) rotate(-12.78)"/><ellipse class="cls-10" cx="176.87" cy="373.23" rx="2.88" ry="4.15" transform="translate(-139.24 -187.77) rotate(-12.78)"/><ellipse class="cls-10" cx="179.47" cy="383.46" rx="2.88" ry="4.15" transform="translate(-141.44 -186.94) rotate(-12.78)"/><ellipse class="cls-10" cx="188.36" cy="385.32" rx="2.88" ry="4.15" transform="translate(-141.63 -184.93) rotate(-12.78)"/><ellipse class="cls-10" cx="183.02" cy="392.91" rx="2.88" ry="3.89" transform="translate(-143.44 -185.92) rotate(-12.78)"/><ellipse class="cls-10" cx="196.88" cy="385.78" rx="2.88" ry="4.15" transform="translate(-141.52 -183.03) rotate(-12.78)"/><ellipse class="cls-10" cx="191.53" cy="396.29" rx="2.88" ry="3.89" transform="translate(-143.98 -183.96) rotate(-12.78)"/><ellipse class="cls-10" cx="209.57" cy="407.05" rx="2.66" ry="3.37" transform="translate(-145.91 -179.7) rotate(-12.78)"/><ellipse class="cls-10" cx="207.52" cy="387.71" rx="2.88" ry="4.15" transform="translate(-141.69 -180.63) rotate(-12.78)"/><ellipse class="cls-10" cx="202.17" cy="398.23" rx="2.88" ry="3.89" transform="translate(-144.14 -181.56) rotate(-12.78)"/><ellipse class="cls-10" cx="218.98" cy="412.21" rx="2.66" ry="3.37" transform="translate(-146.82 -177.49) rotate(-12.78)"/><ellipse class="cls-10" cx="216.03" cy="388.17" rx="2.88" ry="4.15" transform="translate(-141.58 -178.74) rotate(-12.78)"/><ellipse class="cls-10" cx="210.69" cy="398.69" rx="2.88" ry="3.89" transform="translate(-144.04 -179.66) rotate(-12.78)"/><ellipse class="cls-10" cx="258.2" cy="386.08" rx="2.66" ry="3.37" transform="translate(-140.07 -169.46) rotate(-12.78)"/><ellipse class="cls-10" cx="255.25" cy="362.04" rx="2.88" ry="4.15" transform="translate(-134.83 -170.71) rotate(-12.78)"/><ellipse class="cls-10" cx="249.9" cy="372.55" rx="2.88" ry="3.89" transform="translate(-137.28 -171.63) rotate(-12.78)"/><ellipse class="cls-10" cx="266.72" cy="386.54" rx="2.66" ry="3.37" transform="translate(-139.96 -167.57) rotate(-12.78)"/><ellipse class="cls-10" cx="263.77" cy="362.5" rx="2.88" ry="4.15" transform="translate(-134.72 -168.82) rotate(-12.78)"/><ellipse class="cls-10" cx="258.42" cy="373.01" rx="2.88" ry="3.89" transform="translate(-137.17 -169.74) rotate(-12.78)"/><ellipse class="cls-10" cx="185.12" cy="375.73" rx="2.66" ry="3.37" transform="translate(-139.59 -185.88) rotate(-12.78)"/><ellipse class="cls-10" cx="182.17" cy="351.69" rx="2.88" ry="4.15" transform="translate(-134.35 -187.13) rotate(-12.78)"/><ellipse class="cls-10" cx="176.82" cy="362.2" rx="2.88" ry="3.89" transform="translate(-136.81 -188.05) rotate(-12.78)"/><ellipse class="cls-10" cx="193.64" cy="376.19" rx="2.66" ry="3.37" transform="translate(-139.48 -183.99) rotate(-12.78)"/><ellipse class="cls-10" cx="190.69" cy="352.15" rx="2.88" ry="4.15" transform="translate(-134.24 -185.24) rotate(-12.78)"/><ellipse class="cls-10" cx="185.34" cy="362.66" rx="2.88" ry="3.89" transform="translate(-136.7 -186.16) rotate(-12.78)"/><ellipse class="cls-10" cx="202.54" cy="378.05" rx="2.66" ry="3.37" transform="translate(-139.67 -181.98) rotate(-12.78)"/><ellipse class="cls-10" cx="199.58" cy="354.01" rx="2.88" ry="4.15" transform="translate(-134.43 -183.22) rotate(-12.78)"/><ellipse class="cls-10" cx="194.24" cy="364.52" rx="2.88" ry="3.89" transform="translate(-136.89 -184.15) rotate(-12.78)"/><ellipse class="cls-10" cx="211.05" cy="378.51" rx="2.66" ry="3.37" transform="translate(-139.56 -180.08) rotate(-12.78)"/><ellipse class="cls-10" cx="208.1" cy="354.47" rx="2.88" ry="4.15" transform="translate(-134.32 -181.33) rotate(-12.78)"/><ellipse class="cls-10" cx="202.75" cy="364.98" rx="2.88" ry="3.89" transform="translate(-136.78 -182.25) rotate(-12.78)"/><ellipse class="cls-10" cx="221.69" cy="380.45" rx="2.66" ry="3.37" transform="translate(-139.73 -177.68) rotate(-12.78)"/><ellipse class="cls-10" cx="218.74" cy="356.41" rx="2.88" ry="4.15" transform="translate(-134.48 -178.93) rotate(-12.78)"/><ellipse class="cls-10" cx="213.39" cy="366.92" rx="2.88" ry="3.89" transform="translate(-136.94 -179.85) rotate(-12.78)"/><ellipse class="cls-10" cx="230.21" cy="380.9" rx="2.66" ry="3.37" transform="translate(-139.62 -175.78) rotate(-12.78)"/><ellipse class="cls-10" cx="227.25" cy="356.86" rx="2.88" ry="4.15" transform="translate(-134.38 -177.03) rotate(-12.78)"/><ellipse class="cls-10" cx="221.91" cy="367.38" rx="2.88" ry="3.89" transform="translate(-136.83 -177.95) rotate(-12.78)"/><ellipse class="cls-10" cx="227.89" cy="413.3" rx="2.66" ry="3.37" transform="translate(-146.84 -175.49) rotate(-12.78)"/><ellipse class="cls-10" cx="224.94" cy="389.26" rx="2.88" ry="4.15" transform="translate(-141.6 -176.74) rotate(-12.78)"/><ellipse class="cls-10" cx="219.6" cy="399.78" rx="2.88" ry="3.89" transform="translate(-144.06 -177.66) rotate(-12.78)"/><ellipse class="cls-10" cx="236.41" cy="413.76" rx="2.66" ry="3.37" transform="translate(-146.73 -173.6) rotate(-12.78)"/><ellipse class="cls-10" cx="233.46" cy="389.72" rx="2.88" ry="4.15" transform="translate(-141.49 -174.85) rotate(-12.78)"/><ellipse class="cls-10" cx="228.11" cy="400.23" rx="2.88" ry="3.89" transform="translate(-143.95 -175.77) rotate(-12.78)"/><ellipse class="cls-10" cx="245.31" cy="415.62" rx="2.66" ry="3.37" transform="translate(-146.92 -171.58) rotate(-12.78)"/><ellipse class="cls-10" cx="242.36" cy="391.58" rx="2.88" ry="4.15" transform="translate(-141.68 -172.83) rotate(-12.78)"/><ellipse class="cls-10" cx="237.01" cy="402.09" rx="2.88" ry="3.89" transform="translate(-144.14 -173.75) rotate(-12.78)"/><ellipse class="cls-10" cx="253.82" cy="416.08" rx="2.66" ry="3.37" transform="translate(-146.81 -169.69) rotate(-12.78)"/><ellipse class="cls-10" cx="250.87" cy="392.04" rx="2.88" ry="4.15" transform="translate(-141.57 -170.94) rotate(-12.78)"/><ellipse class="cls-10" cx="245.53" cy="402.55" rx="2.88" ry="3.89" transform="translate(-144.03 -171.86) rotate(-12.78)"/><ellipse class="cls-10" cx="264.46" cy="418.02" rx="2.66" ry="3.37" transform="translate(-146.98 -167.29) rotate(-12.78)"/><ellipse class="cls-10" cx="261.51" cy="393.98" rx="2.88" ry="4.15" transform="translate(-141.74 -168.54) rotate(-12.78)"/><ellipse class="cls-10" cx="256.16" cy="404.49" rx="2.88" ry="3.89" transform="translate(-144.19 -169.46) rotate(-12.78)"/><ellipse class="cls-10" cx="272.98" cy="418.48" rx="2.66" ry="3.37" transform="translate(-146.87 -165.39) rotate(-12.78)"/><ellipse class="cls-10" cx="270.03" cy="394.44" rx="2.88" ry="4.15" transform="translate(-141.63 -166.64) rotate(-12.78)"/><ellipse class="cls-10" cx="264.68" cy="404.95" rx="2.88" ry="3.89" transform="translate(-144.08 -167.56) rotate(-12.78)"/><ellipse class="cls-10" cx="240.79" cy="383.76" rx="2.66" ry="3.37" transform="translate(-139.99 -173.37) rotate(-12.78)"/><ellipse class="cls-10" cx="237.84" cy="359.72" rx="2.88" ry="4.15" transform="translate(-134.75 -174.62) rotate(-12.78)"/><ellipse class="cls-10" cx="232.49" cy="370.24" rx="2.88" ry="3.89" transform="translate(-137.2 -175.54) rotate(-12.78)"/><ellipse class="cls-10" cx="249.3" cy="384.22" rx="2.66" ry="3.37" transform="translate(-139.88 -171.48) rotate(-12.78)"/><ellipse class="cls-10" cx="246.35" cy="360.18" rx="2.88" ry="4.15" transform="translate(-134.64 -172.73) rotate(-12.78)"/><ellipse class="cls-10" cx="241.01" cy="370.7" rx="2.88" ry="3.89" transform="translate(-137.09 -173.65) rotate(-12.78)"/></g></g></g><g id="hands"><path class="cls-1" d="M167.68,471.59s.76,10.71,2,16.83a7.61,7.61,0,0,1-4,8.39,5.89,5.89,0,0,1-5.91,0A6.19,6.19,0,0,1,157,492c-.45-6.09-1.36-24.55,3.08-34.74Z" transform="translate(-61.07 -236.13)"/><path class="cls-1" d="M155.36,451.87s-16.13,29.58-7.17,45c0,0,5.65,4.68,6.5-1.79,0,0-.45-30.7,4.92-37.42Z" transform="translate(-61.07 -236.13)"/><path class="cls-1" d="M152.22,450.53s-7.62,16.58,2.24,29.57c0,0,8.52.9,11-10.3C165.44,469.8,160.74,453.22,152.22,450.53Z" transform="translate(-61.07 -236.13)"/><path class="cls-11" d="M150.65,471.37s2.24-6.28,6.28,1.34c0,0,.67,6.05-4.71,5.38Z" transform="translate(-61.07 -236.13)"/><path class="cls-1" d="M388.15,457.92s-11.88,26-1.35,34.73c0,0,5.38,6.27,7.39-.89s-1.56-38.32-1.56-38.32Z" transform="translate(-61.07 -236.13)"/><path class="cls-1" d="M397.33,450.31s15.46,37.41,4.48,48.17c0,0-5.15,3.36-8.74-5.16Z" transform="translate(-61.07 -236.13)"/><path class="cls-1" d="M397.33,450.31s-9.63.22-9.63,13.44,3.36,16.58,3.36,16.58,4.25,3.14,7.17-1.57S397.33,450.31,397.33,450.31Z" transform="translate(-61.07 -236.13)"/><path class="cls-11" d="M392.9,474.15a2.55,2.55,0,0,1,.27-2c1.1-1.8,3.63-4.81,5.51,1.68s-2.07,5-4,3.94a2.51,2.51,0,0,1-1.22-1.54Z" transform="translate(-61.07 -236.13)"/></g></svg>